<svg width="1200" height="320" viewBox="0 0 1200 320" fill="none" xmlns="http://www.w3.org/2000/svg">
  <defs>
    <linearGradient id="bg" x1="30" y1="22" x2="286" y2="296" gradientUnits="userSpaceOnUse">
      <stop stop-color="#0E1638"/>
      <stop offset="0.55" stop-color="#12307F"/>
      <stop offset="1" stop-color="#0A5EEA"/>
    </linearGradient>
    <linearGradient id="neon" x1="74" y1="66" x2="244" y2="224" gradientUnits="userSpaceOnUse">
      <stop stop-color="#6DEBFF"/>
      <stop offset="0.5" stop-color="#5B8CFF"/>
      <stop offset="1" stop-color="#7A5CFF"/>
    </linearGradient>
    <linearGradient id="beam" x1="102" y1="208" x2="228" y2="118" gradientUnits="userSpaceOnUse">
      <stop stop-color="#7FF4FF"/>
      <stop offset="1" stop-color="#A7B5FF"/>
    </linearGradient>
    <linearGradient id="title" x1="332" y1="92" x2="890" y2="160" gradientUnits="userSpaceOnUse">
      <stop stop-color="#1150CF"/>
      <stop offset="1" stop-color="#0A5EEA"/>
    </linearGradient>
    <filter id="soft" x="84" y="86" width="168" height="138" filterUnits="userSpaceOnUse" color-interpolation-filters="sRGB">
      <feFlood flood-opacity="0" result="BackgroundImageFix"/>
      <feGaussianBlur in="SourceGraphic" stdDeviation="4"/>
    </filter>
  </defs>

  <rect x="32" y="24" width="250" height="272" rx="64" fill="url(#bg)"/>
  <rect x="32" y="24" width="250" height="272" rx="64" stroke="url(#neon)" stroke-width="1.6"/>
  <circle cx="157" cy="160" r="86" stroke="#7AC4FF" stroke-opacity="0.36" stroke-width="1.5"/>
  <circle cx="157" cy="160" r="62" stroke="#93CEFF" stroke-opacity="0.3" stroke-width="1.2" stroke-dasharray="5 8"/>

  <path d="M102 122C102 115.373 107.373 110 114 110H177C183.627 110 189 115.373 189 122V124C189 130.627 183.627 136 177 136H114C107.373 136 102 130.627 102 124V122Z" fill="#A8D6FF" fill-opacity="0.3"/>
  <path d="M102 150C102 143.373 107.373 138 114 138H198C204.627 138 210 143.373 210 150V152C210 158.627 204.627 164 198 164H114C107.373 164 102 158.627 102 152V150Z" fill="#96C8FF" fill-opacity="0.3"/>
  <path d="M102 178C102 171.373 107.373 166 114 166H166C172.627 166 178 171.373 178 178V180C178 186.627 172.627 192 166 192H114C107.373 192 102 186.627 102 180V178Z" fill="#7FB8FF" fill-opacity="0.3"/>

  <g filter="url(#soft)">
    <path d="M106 186L140 160L170 168L226 116" stroke="url(#beam)" stroke-width="10" stroke-linecap="round" stroke-linejoin="round"/>
  </g>
  <path d="M106 186L140 160L170 168L226 116" stroke="url(#beam)" stroke-width="7.5" stroke-linecap="round" stroke-linejoin="round"/>
  <circle cx="106" cy="186" r="6.2" fill="#7FF4FF"/>
  <circle cx="140" cy="160" r="6.2" fill="#91DBFF"/>
  <circle cx="170" cy="168" r="6.2" fill="#9DBFFF"/>
  <circle cx="226" cy="116" r="7.5" fill="#B0C1FF"/>

  <path d="M214 84L219 96L232 97L222 105L225 118L214 112L203 118L206 105L196 97L209 96L214 84Z" fill="#86C8FF"/>

  <text x="332" y="140" fill="url(#title)" font-size="74" font-family="Inter, Segoe UI, Arial, sans-serif" font-weight="700" letter-spacing="0.2">Awesome-DB</text>
  <text x="334" y="194" fill="#4D5D86" font-size="28" font-family="Inter, Segoe UI, Arial, sans-serif" font-weight="500" letter-spacing="0.2">AI-native SQL Agent Collaboration Platform</text>
</svg>
